<?xml version="1.0" encoding="utf-8"?>
<!-- Generator: Adobe Illustrator 26.5.0, SVG Export Plug-In . SVG Version: 6.00 Build 0)  -->
<svg version="1.1" xmlns="http://www.w3.org/2000/svg" xmlns:xlink="http://www.w3.org/1999/xlink" x="0px" y="0px"
	 viewBox="0 0 425.2 425.2" style="enable-background:new 0 0 425.2 425.2;" xml:space="preserve">
<style type="text/css">
	.st0{fill:none;stroke:#000000;stroke-width:9;stroke-miterlimit:10;}
	.st1{fill:#FFFFFF;stroke:#000000;stroke-width:9;stroke-miterlimit:10;}
	.st2{fill:none;stroke:#000000;stroke-width:9;stroke-linecap:round;stroke-miterlimit:10;}
	.st3{fill:none;stroke:#000000;stroke-width:18;stroke-miterlimit:10;}
</style>
<g id="Ebene_1">
	<circle class="st0" cx="212.6" cy="145.11" r="67.49"/>
</g>
<g id="Ebene_2">
	<path class="st1" d="M283.54,150.07H425.2c-47.25-0.05-94.41-0.06-141.66-0.03C283.54,150.05,283.54,150.06,283.54,150.07z"/>
	<path class="st1" d="M141.43,150.03C94.35,150,46.88,150.02,0,150.07h141.43C141.43,150.06,141.43,150.04,141.43,150.03z"/>
	<g>
		<g>
			<line class="st2" x1="212.6" y1="368.27" x2="212.6" y2="251.47"/>
			<g>
				<path d="M242.84,294.53c-1.46,0.94-3.41,0.5-4.35-0.97l-25.89-40.65l-25.89,40.65c-0.94,1.47-2.89,1.91-4.35,0.97
					c-1.46-0.94-1.89-2.9-0.97-4.36l28.55-44.82c0.58-0.9,1.58-1.46,2.66-1.46c1.08,0,2.08,0.55,2.66,1.46l28.55,44.82
					c0.33,0.53,0.49,1.11,0.49,1.69C244.3,292.91,243.78,293.93,242.84,294.53z"/>
			</g>
		</g>
	</g>
</g>
<g id="Ebene_3">
	<polyline class="st3" points="0,0 0,425.2 425.2,425.2 425.2,0 	"/>
</g>
</svg>
