<?xml version="1.0" encoding="utf-8"?>
<!-- Generator: Adobe Illustrator 26.4.1, SVG Export Plug-In . SVG Version: 6.00 Build 0)  -->
<svg version="1.1" id="Ebene_1" xmlns="http://www.w3.org/2000/svg" xmlns:xlink="http://www.w3.org/1999/xlink" x="0px" y="0px"
	 viewBox="0 0 425.2 425.2" style="enable-background:new 0 0 425.2 425.2;" xml:space="preserve">
<style type="text/css">
	.st0{display:none;}
	.st1{stroke:#000000;stroke-width:5;stroke-miterlimit:10;}
	.st2{stroke:#000000;stroke-width:0.5;stroke-miterlimit:10;}
</style>
<g id="Ebene_1_00000116204592786038456470000016780116723746160054_" class="st0">
</g>
<g id="Ebene_2_00000066508710614837334890000014542433261335804345_">
	<g>
		<g>
			<path class="st1" d="M41.3,8.5c2.6,3.3,5.3,6.6,7.9,9.9c7.2,8.9,14.3,17.9,21.5,26.8c10.6,13.2,21.2,26.4,31.8,39.6
				c13,16.2,25.9,32.3,38.9,48.5c14.2,17.6,28.3,35.3,42.4,52.9c14.3,17.8,28.6,35.6,42.8,53.4c13.4,16.7,26.7,33.3,40.1,50
				c11.2,14,22.4,28,33.7,42c8.1,10.1,16.2,20.3,24.4,30.4c3.8,4.8,7.5,9.7,11.5,14.4c0.2,0.2,0.3,0.4,0.5,0.6
				c1.8,2.3,5-0.9,3.2-3.2c-2.6-3.3-5.3-6.6-7.9-9.9c-7.2-8.9-14.3-17.9-21.5-26.8c-10.6-13.2-21.2-26.4-31.8-39.6
				c-13-16.2-25.9-32.3-38.9-48.5c-14.2-17.6-28.3-35.3-42.4-52.9c-14.3-17.8-28.6-35.6-42.8-53.4c-13.4-16.7-26.7-33.3-40.1-50
				c-11.2-14-22.4-28-33.7-42c-8.1-10.1-16.2-20.3-24.4-30.4c-3.8-4.8-7.5-9.7-11.5-14.4c-0.2-0.2-0.3-0.4-0.5-0.6
				C42.6,3.1,39.5,6.3,41.3,8.5L41.3,8.5z"/>
		</g>
	</g>
	<circle class="st2" cx="338.3" cy="375.3" r="49.9"/>
</g>
</svg>
